<mxfile host="app.diagrams.net" modified="2023-07-17T07:58:09.756Z" agent="Mozilla/5.0 (Windows NT 10.0; Win64; x64; rv:109.0) Gecko/20100101 Firefox/115.0" version="21.6.1" etag="TeBTf9vUycZ2CP8r4fEH" type="github">
  <diagram name="Page-1" id="3OAQVwdVeZBZX6GQ6yAm">
    <mxGraphModel>
      <root>
        <mxCell id="0" />
        <mxCell id="1" parent="0" />
      </root>
    </mxGraphModel>
  </diagram>
</mxfile>
